<svg class="main-svg" xmlns="http://www.w3.org/2000/svg" xmlns:xlink="http://www.w3.org/1999/xlink" width="676.8000000000001pt" height="547.1999999999999pt" style="" viewBox="0 0 676.8000000000001 547.1999999999999"><rect x="0" y="0" width="676.8000000000001" height="547.1999999999999" style="fill: rgb(255, 255, 255); fill-opacity: 1;"/><defs id="defs-3ae708"><g class="clips"><clipPath id="clip3ae708xyplot" class="plotclip"><rect width="657" height="501"/></clipPath><clipPath class="axesclip" id="clip3ae708x"><rect x="10" y="0" width="657" height="547.1999999999999"/></clipPath><clipPath class="axesclip" id="clip3ae708y"><rect x="0" y="36" width="676.8000000000001" height="501"/></clipPath><clipPath class="axesclip" id="clip3ae708xy"><rect x="10" y="36" width="657" height="501"/></clipPath></g><g class="gradients"/><g class="patterns"/></defs><g class="bglayer"/><g class="layer-below"><g class="imagelayer"/><g class="shapelayer"/></g><g class="cartesianlayer"><g class="subplot xy"><g class="layer-subplot"><g class="shapelayer"><g class="shape-group" data-index="0" clip-path="url(#clip3ae708xy)"><path data-index="0" fill-rule="evenodd" d="M 31.14 103.63 L 323.93 103.63 C 328.35 103.63 331.93 100.05 331.93 95.64 L 331.93 54.019999999999996 C 331.93 49.6 328.35 46.019999999999996 323.93 46.019999999999996 L 31.14 46.019999999999996 C 26.72 46.019999999999996 23.14 49.6 23.14 54.019999999999996 L 23.14 95.64 C 23.14 100.05 26.72 103.63 31.14 103.63 Z" style="opacity: 1; stroke: rgb(51, 51, 51); stroke-opacity: 1; fill: rgb(234, 220, 248); fill-opacity: 1; stroke-width: 1px;"/></g><g class="shape-group" data-index="1" clip-path="url(#clip3ae708xy)"><path data-index="1" fill-rule="evenodd" d="M 366.21 103.63 L 645.86 103.63 C 650.28 103.63 653.86 100.05 653.86 95.64 L 653.86 54.019999999999996 C 653.86 49.6 650.28 46.019999999999996 645.86 46.019999999999996 L 366.21 46.019999999999996 C 361.79 46.019999999999996 358.21 49.6 358.21 54.019999999999996 L 358.21 95.64 C 358.21 100.05 361.79 103.63 366.21 103.63 Z" style="opacity: 1; stroke: rgb(51, 51, 51); stroke-opacity: 1; fill: rgb(234, 220, 248); fill-opacity: 1; stroke-width: 1px;"/></g><g class="shape-group" data-index="2" clip-path="url(#clip3ae708xy)"><path data-index="2" fill-rule="evenodd" d="M 31.14 178.79 L 645.86 178.79 C 650.28 178.79 653.86 175.2 653.86 170.79 L 653.86 134.18 C 653.86 129.76 650.28 126.18 645.86 126.18 L 31.14 126.18 C 26.72 126.18 23.14 129.76 23.14 134.18 L 23.14 170.79 C 23.14 175.2 26.72 178.79 31.14 178.79 Z" style="opacity: 1; stroke: rgb(51, 51, 51); stroke-opacity: 1; fill: rgb(217, 234, 211); fill-opacity: 1; stroke-width: 1px;"/></g><g class="shape-group" data-index="3" clip-path="url(#clip3ae708xy)"><path data-index="3" fill-rule="evenodd" d="M 338.5 188.81 L 469.9 213.86 L 338.5 238.91 L 207.1 213.86 Z" style="opacity: 1; stroke: rgb(51, 51, 51); stroke-opacity: 1; fill: rgb(255, 247, 222); fill-opacity: 1; stroke-width: 1px;"/></g><g class="shape-group" data-index="4" clip-path="url(#clip3ae708xy)"><path data-index="4" fill-rule="evenodd" d="M 31.14 339.11 L 317.36 339.11 C 321.78 339.11 325.36 335.52 325.36 331.11 L 325.36 281.97 C 325.36 277.56 321.78 273.97 317.36 273.97 L 31.14 273.97 C 26.72 273.97 23.14 277.56 23.14 281.97 L 23.14 331.11 C 23.14 335.52 26.72 339.11 31.14 339.11 Z" style="opacity: 1; stroke: rgb(51, 51, 51); stroke-opacity: 1; fill: rgb(244, 204, 204); fill-opacity: 1; stroke-width: 1px;"/></g><g class="shape-group" data-index="5" clip-path="url(#clip3ae708xy)"><path data-index="5" fill-rule="evenodd" d="M 359.64 339.11 L 645.86 339.11 C 650.28 339.11 653.86 335.52 653.86 331.11 L 653.86 281.97 C 653.86 277.56 650.28 273.97 645.86 273.97 L 359.64 273.97 C 355.22 273.97 351.64 277.56 351.64 281.97 L 351.64 331.11 C 351.64 335.52 355.22 339.11 359.64 339.11 Z" style="opacity: 1; stroke: rgb(51, 51, 51); stroke-opacity: 1; fill: rgb(217, 234, 211); fill-opacity: 1; stroke-width: 1px;"/></g><g class="shape-group" data-index="6" clip-path="url(#clip3ae708xy)"><path data-index="6" fill-rule="evenodd" d="M 31.14 419.27 L 645.86 419.27 C 650.28 419.27 653.86 415.68 653.86 411.27 L 653.86 369.65 C 653.86 365.23 650.28 361.65 645.86 361.65 L 31.14 361.65 C 26.72 361.65 23.14 365.23 23.14 369.65 L 23.14 411.27 C 23.14 415.68 26.72 419.27 31.14 419.27 Z" style="opacity: 1; stroke: rgb(51, 51, 51); stroke-opacity: 1; fill: rgb(232, 238, 247); fill-opacity: 1; stroke-width: 1px;"/></g><g class="shape-group" data-index="7" clip-path="url(#clip3ae708xy)"><path data-index="7" fill-rule="evenodd" d="M 31.14 509.45 L 645.86 509.45 C 650.28 509.45 653.86 505.86 653.86 501.45 L 653.86 454.82 C 653.86 450.4 650.28 446.82 645.86 446.82 L 31.14 446.82 C 26.72 446.82 23.14 450.4 23.14 454.82 L 23.14 501.45 C 23.14 505.86 26.72 509.45 31.14 509.45 Z" style="opacity: 1; stroke: rgb(51, 51, 51); stroke-opacity: 1; fill: rgb(252, 228, 214); fill-opacity: 1; stroke-width: 1px;"/></g></g><g class="imagelayer"/></g><g class="minor-gridlayer"><g class="x"/><g class="y"/></g><g class="gridlayer"><g class="x"/><g class="y"/></g><g class="zerolinelayer"/><g class="layer-between"><g class="shapelayer"/><g class="imagelayer"/></g><path class="xlines-below"/><path class="ylines-below"/><g class="overlines-below"/><g class="xaxislayer-below"/><g class="yaxislayer-below"/><g class="overaxes-below"/><g class="overplot"><g class="xy" transform="translate(10,36)" clip-path="url(#clip3ae708xyplot)"/></g><g class="zerolinelayer-above"/><path class="xlines-above crisp" d="M0,0" style="fill: none;"/><path class="ylines-above crisp" d="M0,0" style="fill: none;"/><g class="overlines-above"/><g class="xaxislayer-above"/><g class="yaxislayer-above"/><g class="overaxes-above"/></g></g><g class="polarlayer"/><g class="smithlayer"/><g class="ternarylayer"/><g class="geolayer"/><g class="funnelarealayer"/><g class="pielayer"/><g class="iciclelayer"/><g class="treemaplayer"/><g class="sunburstlayer"/><g class="glimages"/><defs id="topdefs-3ae708"><g class="clips"/></defs><g class="layer-above"><g class="imagelayer"/><g class="shapelayer"/></g><g class="infolayer"><g class="g-gtitle"><text class="gtitle" x="338.40000000000003" y="18" text-anchor="middle" dy="0em" style="opacity: 1; font-family: Helvetica, Arial, 'Helvetica Neue', 'DejaVu Sans', 'PingFang SC', 'Songti SC', 'Hiragino Sans GB', 'Microsoft YaHei', sans-serif; font-size: 12px; fill: rgb(17, 17, 17); fill-opacity: 1; white-space: pre;">带宽延迟积估计、参数自适应与拥塞窗口决策流程</text></g><g class="annotation" data-index="0" style="opacity: 1;"><g class="annotation-text-g" transform="rotate(0,177.53,74.83)"><g class="cursor-pointer" transform="translate(86,54)"><rect class="bg" x="0.5" y="0.5" width="182" height="41" style="stroke-width: 1px; stroke: rgb(0, 0, 0); stroke-opacity: 0; fill: rgb(0, 0, 0); fill-opacity: 0;"/><text class="annotation-text" text-anchor="middle" x="91.6953125" y="9" style="font-family: Helvetica, Arial, 'Helvetica Neue', 'DejaVu Sans', 'PingFang SC', 'Songti SC', 'Hiragino Sans GB', 'Microsoft YaHei', sans-serif; font-size: 7.5px; fill: rgb(17, 17, 17); fill-opacity: 1; white-space: pre;"><tspan class="line" dy="0em" x="91.6953125" y="9">S3a 第一级带宽延迟积估计</tspan><tspan class="line" dy="1.3em" x="91.6953125" y="9">以确认事件维护时刻与累计已确认字节数样本</tspan><tspan class="line" dy="2.6em" x="91.6953125" y="9">时间窗跨度取最小往返时延的两倍，箝位于 5 ms ~ 1 s</tspan><tspan class="line" dy="3.9000000000000004em" x="91.6953125" y="9">交付速率样本 = 窗口内累计确认字节增量 / 实际跨度</tspan></text></g></g></g><g class="annotation" data-index="1" style="opacity: 1;"><g class="annotation-text-g" transform="rotate(0,331.93,74.83)"><g class="cursor-pointer" transform="translate(330,73)"><rect class="bg" x="0.5" y="0.5" width="3" height="3" style="stroke-width: 1px; stroke: rgb(0, 0, 0); stroke-opacity: 0; fill: rgb(0, 0, 0); fill-opacity: 0;"/><text class="annotation-text" text-anchor="middle" x="2" y="2" style="font-family: Helvetica, Arial, 'Helvetica Neue', 'DejaVu Sans', 'PingFang SC', 'Songti SC', 'Hiragino Sans GB', 'Microsoft YaHei', sans-serif; font-size: 8px; fill: rgb(17, 17, 17); fill-opacity: 1; white-space: pre;"></text></g></g><g class="annotation-arrow-g" style="opacity: 1;"><path d="M333.43,74.83L358.21,74.83" style="stroke-width: 1.1px; stroke: rgb(51, 51, 51); stroke-opacity: 1; stroke-dasharray: 0px, 0px, 23.35px, 24.78px;"/><path d="M-3.7,-2.5V2.5L1.3,0Z" transform="translate(356.7799987792969,74.83000183105469)scale(1.1)" style="fill: rgb(51, 51, 51); stroke-width: 0;"/></g></g><g class="annotation" data-index="2" style="opacity: 1;"><g class="annotation-text-g" transform="rotate(0,506.04,74.83)"><g class="cursor-pointer" transform="translate(419,54)"><rect class="bg" x="0.5" y="0.5" width="173" height="41" style="stroke-width: 1px; stroke: rgb(0, 0, 0); stroke-opacity: 0; fill: rgb(0, 0, 0); fill-opacity: 0;"/><text class="annotation-text" text-anchor="middle" x="87.0078125" y="9" style="font-family: Helvetica, Arial, 'Helvetica Neue', 'DejaVu Sans', 'PingFang SC', 'Songti SC', 'Hiragino Sans GB', 'Microsoft YaHei', sans-serif; font-size: 7.5px; fill: rgb(17, 17, 17); fill-opacity: 1; white-space: pre;"><tspan class="line" dy="0em" x="87.0078125" y="9">S3b 第二级带宽延迟积估计</tspan><tspan class="line" dy="1.3em" x="87.0078125" y="9">容量 40 的交付速率队列取最大值作为瓶颈带宽估计</tspan><tspan class="line" dy="2.6em" x="87.0078125" y="9">带宽延迟积 = 瓶颈带宽估计 × 全局最小往返时延</tspan><tspan class="line" dy="3.9000000000000004em" x="87.0078125" y="9">估计不可用时以当前拥塞窗口作为保守回退值</tspan></text></g></g></g><g class="annotation" data-index="3" style="opacity: 1;"><g class="annotation-text-g" transform="rotate(0,338.5,103.63)"><g class="cursor-pointer" transform="translate(337,102)"><rect class="bg" x="0.5" y="0.5" width="3" height="3" style="stroke-width: 1px; stroke: rgb(0, 0, 0); stroke-opacity: 0; fill: rgb(0, 0, 0); fill-opacity: 0;"/><text class="annotation-text" text-anchor="middle" x="2" y="2" style="font-family: Helvetica, Arial, 'Helvetica Neue', 'DejaVu Sans', 'PingFang SC', 'Songti SC', 'Hiragino Sans GB', 'Microsoft YaHei', sans-serif; font-size: 8px; fill: rgb(17, 17, 17); fill-opacity: 1; white-space: pre;"></text></g></g><g class="annotation-arrow-g" style="opacity: 1;"><path d="M338.5,105.13L338.5,123.68" style="stroke-width: 1.1px; stroke: rgb(51, 51, 51); stroke-opacity: 1; stroke-dasharray: 0px, 0px, 17.12px, 18.55px;"/><path d="M-3.7,-2.5V2.5L1.3,0Z" transform="translate(338.5,122.25)rotate(90)scale(1.1)" style="fill: rgb(51, 51, 51); stroke-width: 0;"/></g></g><g class="annotation" data-index="4" style="opacity: 1;"><g class="annotation-text-g" transform="rotate(0,338.5,152.48000000000002)"><g class="cursor-pointer" transform="translate(209,131)"><rect class="bg" x="0.5" y="0.5" width="258" height="41" style="stroke-width: 1px; stroke: rgb(0, 0, 0); stroke-opacity: 0; fill: rgb(0, 0, 0); fill-opacity: 0;"/><text class="annotation-text" text-anchor="middle" x="129.53125" y="9" style="font-family: Helvetica, Arial, 'Helvetica Neue', 'DejaVu Sans', 'PingFang SC', 'Songti SC', 'Hiragino Sans GB', 'Microsoft YaHei', sans-serif; font-size: 7.5px; fill: rgb(17, 17, 17); fill-opacity: 1; white-space: pre;"><tspan class="line" dy="0em" x="129.53125" y="9">S4 乘性增加因子自适应（每连接独立维护，初值 1.10，箝位于 [0.85, 1.30]）</tspan><tspan class="line" dy="1.3em" x="129.53125" y="9">因子一：往返时延膨胀比对照随最小往返时延平方根增长的三级动态阈值</tspan><tspan class="line" dy="2.6em" x="129.53125" y="9">因子二：快速指数移动平均对照其自身慢速基线与自适应裕度</tspan><tspan class="line" dy="3.9000000000000004em" x="129.53125" y="9">因子三：连续增长计数超过预设次数时进一步小幅增大</tspan></text></g></g></g><g class="annotation" data-index="5" style="opacity: 1;"><g class="annotation-text-g" transform="rotate(0,338.5,213.86)"><g class="cursor-pointer" transform="translate(296,207)"><rect class="bg" x="0.5" y="0.5" width="84" height="13" style="stroke-width: 1px; stroke: rgb(0, 0, 0); stroke-opacity: 0; fill: rgb(0, 0, 0); fill-opacity: 0;"/><text class="annotation-text" text-anchor="middle" x="42.5" y="10" style="font-family: Helvetica, Arial, 'Helvetica Neue', 'DejaVu Sans', 'PingFang SC', 'Songti SC', 'Hiragino Sans GB', 'Microsoft YaHei', sans-serif; font-size: 9px; fill: rgb(17, 17, 17); fill-opacity: 1; white-space: pre;">是否处于拥塞状态？</text></g></g></g><g class="annotation" data-index="6" style="opacity: 1;"><g class="annotation-text-g" transform="rotate(0,338.5,178.79)"><g class="cursor-pointer" transform="translate(337,177)"><rect class="bg" x="0.5" y="0.5" width="3" height="3" style="stroke-width: 1px; stroke: rgb(0, 0, 0); stroke-opacity: 0; fill: rgb(0, 0, 0); fill-opacity: 0;"/><text class="annotation-text" text-anchor="middle" x="2" y="2" style="font-family: Helvetica, Arial, 'Helvetica Neue', 'DejaVu Sans', 'PingFang SC', 'Songti SC', 'Hiragino Sans GB', 'Microsoft YaHei', sans-serif; font-size: 8px; fill: rgb(17, 17, 17); fill-opacity: 1; white-space: pre;"></text></g></g><g class="annotation-arrow-g" style="opacity: 1;"><path d="M338.5,180.29L338.5,208.85" style="stroke-width: 1.1px; stroke: rgb(51, 51, 51); stroke-opacity: 1; stroke-dasharray: 0px, 0px, 27.13px, 28.56px;"/><path d="M-3.7,-2.5V2.5L1.3,0Z" transform="translate(338.5,207.42001342773438)rotate(90)scale(1.1)" style="fill: rgb(51, 51, 51); stroke-width: 0;"/></g></g><g class="annotation" data-index="7" style="opacity: 1;"><g class="annotation-text-g" transform="rotate(0,174.25,306.54)"><g class="cursor-pointer" transform="translate(66,281)"><rect class="bg" x="0.5" y="0.5" width="216" height="51" style="stroke-width: 1px; stroke: rgb(0, 0, 0); stroke-opacity: 0; fill: rgb(0, 0, 0); fill-opacity: 0;"/><text class="annotation-text" text-anchor="middle" x="108.2734375" y="9" style="font-family: Helvetica, Arial, 'Helvetica Neue', 'DejaVu Sans', 'PingFang SC', 'Songti SC', 'Hiragino Sans GB', 'Microsoft YaHei', sans-serif; font-size: 7.5px; fill: rgb(17, 17, 17); fill-opacity: 1; white-space: pre;"><tspan class="line" dy="0em" x="108.2734375" y="9">拥塞分支：差异化缩减与安全保护</tspan><tspan class="line" dy="1.3em" x="108.2734375" y="9">保留因子：超时类 0.50 / 显式拥塞通知类 0.75 / 普通丢包类 0.70</tspan><tspan class="line" dy="2.6em" x="108.2734375" y="9">新拥塞窗口 = 保留因子 × 当前拥塞窗口（不低于窗口下界）</tspan><tspan class="line" dy="3.9000000000000004em" x="108.2734375" y="9">新慢启动阈值 = 保留因子 × min(当前窗口, 带宽延迟积)</tspan><tspan class="line" dy="5.2em" x="108.2734375" y="9">超时类拥塞同时重新进入慢启动阶段</tspan></text></g></g></g><g class="annotation" data-index="8" style="opacity: 1;"><g class="annotation-text-g" transform="rotate(0,207.1,238.91)"><g class="cursor-pointer" transform="translate(205,237)"><rect class="bg" x="0.5" y="0.5" width="3" height="3" style="stroke-width: 1px; stroke: rgb(0, 0, 0); stroke-opacity: 0; fill: rgb(0, 0, 0); fill-opacity: 0;"/><text class="annotation-text" text-anchor="middle" x="2" y="2" style="font-family: Helvetica, Arial, 'Helvetica Neue', 'DejaVu Sans', 'PingFang SC', 'Songti SC', 'Hiragino Sans GB', 'Microsoft YaHei', sans-serif; font-size: 8px; fill: rgb(17, 17, 17); fill-opacity: 1; white-space: pre;"></text></g></g><g class="annotation-arrow-g" style="opacity: 1;"><path d="M205.694552196235,240.41L174.25,273.97" style="stroke-width: 1.1px; stroke: rgb(51, 51, 51); stroke-opacity: 1; stroke-dasharray: 0px, 0px, 44.5595px, 45.9895px;"/><path d="M-3.7,-2.5V2.5L1.3,0Z" transform="translate(175.2277374267578,272.9264831542969)rotate(133.1388358682244)scale(1.1)" style="fill: rgb(51, 51, 51); stroke-width: 0;"/></g></g><g class="annotation" data-index="9" style="opacity: 1;"><g class="annotation-text-g" transform="rotate(0,190.67,246.44)"><g class="cursor-pointer" transform="translate(185,240)"><rect class="bg" x="0.5" y="0.5" width="10" height="11" style="stroke-width: 1px; stroke: rgb(0, 0, 0); stroke-opacity: 0; fill: rgb(0, 0, 0); fill-opacity: 0;"/><text class="annotation-text" text-anchor="middle" x="5.5" y="8" style="font-family: Helvetica, Arial, 'Helvetica Neue', 'DejaVu Sans', 'PingFang SC', 'Songti SC', 'Hiragino Sans GB', 'Microsoft YaHei', sans-serif; font-size: 7px; fill: rgb(51, 51, 51); fill-opacity: 1; white-space: pre;">是</text></g></g></g><g class="annotation" data-index="10" style="opacity: 1;"><g class="annotation-text-g" transform="rotate(0,502.75,306.54)"><g class="cursor-pointer" transform="translate(402,281)"><rect class="bg" x="0.5" y="0.5" width="200" height="51" style="stroke-width: 1px; stroke: rgb(0, 0, 0); stroke-opacity: 0; fill: rgb(0, 0, 0); fill-opacity: 0;"/><text class="annotation-text" text-anchor="middle" x="100.25" y="9" style="font-family: Helvetica, Arial, 'Helvetica Neue', 'DejaVu Sans', 'PingFang SC', 'Songti SC', 'Hiragino Sans GB', 'Microsoft YaHei', sans-serif; font-size: 7.5px; fill: rgb(17, 17, 17); fill-opacity: 1; white-space: pre;"><tspan class="line" dy="0em" x="100.25" y="9">非拥塞分支：有界目标窗口跟踪</tspan><tspan class="line" dy="1.3em" x="100.25" y="9">冻结计数器为正：保持拥塞窗口不变（降窗后冻结）</tspan><tspan class="line" dy="2.6em" x="100.25" y="9">慢启动：目标窗口 = max(2 × 带宽延迟积, 10 × 报文段大小)</tspan><tspan class="line" dy="3.9000000000000004em" x="100.25" y="9">拥塞避免：目标窗口 = 乘性增加因子 × 带宽延迟积；</tspan><tspan class="line" dy="5.2em" x="100.25" y="9">低于目标按有界步长上升，高于目标按超出量的一半回落</tspan></text></g></g></g><g class="annotation" data-index="11" style="opacity: 1;"><g class="annotation-text-g" transform="rotate(0,469.9,238.91)"><g class="cursor-pointer" transform="translate(468,237)"><rect class="bg" x="0.5" y="0.5" width="3" height="3" style="stroke-width: 1px; stroke: rgb(0, 0, 0); stroke-opacity: 0; fill: rgb(0, 0, 0); fill-opacity: 0;"/><text class="annotation-text" text-anchor="middle" x="2" y="2" style="font-family: Helvetica, Arial, 'Helvetica Neue', 'DejaVu Sans', 'PingFang SC', 'Songti SC', 'Hiragino Sans GB', 'Microsoft YaHei', sans-serif; font-size: 8px; fill: rgb(17, 17, 17); fill-opacity: 1; white-space: pre;"></text></g></g><g class="annotation-arrow-g" style="opacity: 1;"><path d="M471.30544780376493,240.41L502.75,273.97" style="stroke-width: 1.1px; stroke: rgb(51, 51, 51); stroke-opacity: 1; stroke-dasharray: 0px, 0px, 44.5595px, 45.9895px;"/><path d="M-3.7,-2.5V2.5L1.3,0Z" transform="translate(501.7722473144531,272.9264831542969)rotate(46.86754450154948)scale(1.1)" style="fill: rgb(51, 51, 51); stroke-width: 0;"/></g></g><g class="annotation" data-index="12" style="opacity: 1;"><g class="annotation-text-g" transform="rotate(0,486.32,246.44)"><g class="cursor-pointer" transform="translate(481,240)"><rect class="bg" x="0.5" y="0.5" width="10" height="11" style="stroke-width: 1px; stroke: rgb(0, 0, 0); stroke-opacity: 0; fill: rgb(0, 0, 0); fill-opacity: 0;"/><text class="annotation-text" text-anchor="middle" x="5.5" y="8" style="font-family: Helvetica, Arial, 'Helvetica Neue', 'DejaVu Sans', 'PingFang SC', 'Songti SC', 'Hiragino Sans GB', 'Microsoft YaHei', sans-serif; font-size: 7px; fill: rgb(51, 51, 51); fill-opacity: 1; white-space: pre;">否</text></g></g></g><g class="annotation" data-index="13" style="opacity: 1;"><g class="annotation-text-g" transform="rotate(0,338.5,390.46)"><g class="cursor-pointer" transform="translate(217,364)"><rect class="bg" x="0.5" y="0.5" width="242" height="51" style="stroke-width: 1px; stroke: rgb(0, 0, 0); stroke-opacity: 0; fill: rgb(0, 0, 0); fill-opacity: 0;"/><text class="annotation-text" text-anchor="middle" x="121.5" y="9" style="font-family: Helvetica, Arial, 'Helvetica Neue', 'DejaVu Sans', 'PingFang SC', 'Songti SC', 'Hiragino Sans GB', 'Microsoft YaHei', sans-serif; font-size: 7.5px; fill: rgb(17, 17, 17); fill-opacity: 1; white-space: pre;"><tspan class="line" dy="0em" x="121.5" y="9">S5 统一稳定性与安全约束（在全部决策分支上施加）</tspan><tspan class="line" dy="1.3em" x="121.5" y="9">连续缩减计数器超过 3：保持当前拥塞窗口不再继续缩减</tspan><tspan class="line" dy="2.6em" x="121.5" y="9">每次降窗后 4 个确认事件内冻结窗口，抑制降窗后快速反弹</tspan><tspan class="line" dy="3.9000000000000004em" x="121.5" y="9">窗口下界 4 × 报文段大小；上界 max(4 × 带宽延迟积, 200 × 报文段大小)</tspan><tspan class="line" dy="5.2em" x="121.5" y="9">新的慢启动阈值不低于新的拥塞窗口与窗口下界</tspan></text></g></g></g><g class="annotation" data-index="14" style="opacity: 1;"><g class="annotation-text-g" transform="rotate(0,174.25,339.11)"><g class="cursor-pointer" transform="translate(172,337)"><rect class="bg" x="0.5" y="0.5" width="3" height="3" style="stroke-width: 1px; stroke: rgb(0, 0, 0); stroke-opacity: 0; fill: rgb(0, 0, 0); fill-opacity: 0;"/><text class="annotation-text" text-anchor="middle" x="2" y="2" style="font-family: Helvetica, Arial, 'Helvetica Neue', 'DejaVu Sans', 'PingFang SC', 'Songti SC', 'Hiragino Sans GB', 'Microsoft YaHei', sans-serif; font-size: 8px; fill: rgb(17, 17, 17); fill-opacity: 1; white-space: pre;"></text></g></g><g class="annotation-arrow-g" style="opacity: 1;"><path d="M174.25,340.61L174.25,361.65" style="stroke-width: 1.1px; stroke: rgb(51, 51, 51); stroke-opacity: 1; stroke-dasharray: 0px, 0px, 19.61px, 21.04px;"/><path d="M-3.7,-2.5V2.5L1.3,0Z" transform="translate(174.25,360.2200012207031)rotate(90)scale(1.1)" style="fill: rgb(51, 51, 51); stroke-width: 0;"/></g></g><g class="annotation" data-index="15" style="opacity: 1;"><g class="annotation-text-g" transform="rotate(0,502.75,339.11)"><g class="cursor-pointer" transform="translate(501,337)"><rect class="bg" x="0.5" y="0.5" width="3" height="3" style="stroke-width: 1px; stroke: rgb(0, 0, 0); stroke-opacity: 0; fill: rgb(0, 0, 0); fill-opacity: 0;"/><text class="annotation-text" text-anchor="middle" x="2" y="2" style="font-family: Helvetica, Arial, 'Helvetica Neue', 'DejaVu Sans', 'PingFang SC', 'Songti SC', 'Hiragino Sans GB', 'Microsoft YaHei', sans-serif; font-size: 8px; fill: rgb(17, 17, 17); fill-opacity: 1; white-space: pre;"></text></g></g><g class="annotation-arrow-g" style="opacity: 1;"><path d="M502.75,340.61L502.75,361.65" style="stroke-width: 1.1px; stroke: rgb(51, 51, 51); stroke-opacity: 1; stroke-dasharray: 0px, 0px, 19.61px, 21.04px;"/><path d="M-3.7,-2.5V2.5L1.3,0Z" transform="translate(502.75,360.2200012207031)rotate(90)scale(1.1)" style="fill: rgb(51, 51, 51); stroke-width: 0;"/></g></g><g class="annotation" data-index="16" style="opacity: 1;"><g class="annotation-text-g" transform="rotate(0,338.5,478.13)"><g class="cursor-pointer" transform="translate(217,452)"><rect class="bg" x="0.5" y="0.5" width="243" height="51" style="stroke-width: 1px; stroke: rgb(0, 0, 0); stroke-opacity: 0; fill: rgb(0, 0, 0); fill-opacity: 0;"/><text class="annotation-text" text-anchor="middle" x="122" y="9" style="font-family: Helvetica, Arial, 'Helvetica Neue', 'DejaVu Sans', 'PingFang SC', 'Songti SC', 'Hiragino Sans GB', 'Microsoft YaHei', sans-serif; font-size: 7.5px; fill: rgb(17, 17, 17); fill-opacity: 1; white-space: pre;"><tspan class="line" dy="0em" x="122" y="9">S6 动作输出与应用</tspan><tspan class="line" dy="1.3em" x="122" y="9">输出动作向量：新的慢启动阈值与新的拥塞窗口</tspan><tspan class="line" dy="2.6em" x="122" y="9">只读的窗口缩减回调中暂存拥塞窗口决策并返回新的慢启动阈值</tspan><tspan class="line" dy="3.9000000000000004em" x="122" y="9">在后续窗口增长回调中应用暂存值；协议栈进入丢失状态时作废陈旧决策</tspan><tspan class="line" dy="5.2em" x="122" y="9">应用前对慢启动阈值与拥塞窗口施加不低于 2 × 报文段大小的下限校验</tspan></text></g></g></g><g class="annotation" data-index="17" style="opacity: 1;"><g class="annotation-text-g" transform="rotate(0,338.5,419.27)"><g class="cursor-pointer" transform="translate(337,417)"><rect class="bg" x="0.5" y="0.5" width="3" height="3" style="stroke-width: 1px; stroke: rgb(0, 0, 0); stroke-opacity: 0; fill: rgb(0, 0, 0); fill-opacity: 0;"/><text class="annotation-text" text-anchor="middle" x="2" y="2" style="font-family: Helvetica, Arial, 'Helvetica Neue', 'DejaVu Sans', 'PingFang SC', 'Songti SC', 'Hiragino Sans GB', 'Microsoft YaHei', sans-serif; font-size: 8px; fill: rgb(17, 17, 17); fill-opacity: 1; white-space: pre;"></text></g></g><g class="annotation-arrow-g" style="opacity: 1;"><path d="M338.5,420.77L338.5,446.82" style="stroke-width: 1.1px; stroke: rgb(51, 51, 51); stroke-opacity: 1; stroke-dasharray: 0px, 0px, 24.62px, 26.05px;"/><path d="M-3.7,-2.5V2.5L1.3,0Z" transform="translate(338.5,445.3900146484375)rotate(90)scale(1.1)" style="fill: rgb(51, 51, 51); stroke-width: 0;"/></g></g></g></svg>