<svg class="main-svg" xmlns="http://www.w3.org/2000/svg" xmlns:xlink="http://www.w3.org/1999/xlink" width="662.4pt" height="331.2pt" style="" viewBox="0 0 662.4 331.2"><rect x="0" y="0" width="662.4" height="331.2" style="fill: rgb(255, 255, 255); fill-opacity: 1;"/><defs id="defs-40a3dc"><g class="clips"><clipPath id="clip40a3dcxyplot" class="plotclip"><rect width="642" height="281"/></clipPath><clipPath class="axesclip" id="clip40a3dcx"><rect x="10" y="0" width="642" height="331.2"/></clipPath><clipPath class="axesclip" id="clip40a3dcy"><rect x="0" y="40" width="662.4" height="281"/></clipPath><clipPath class="axesclip" id="clip40a3dcxy"><rect x="10" y="40" width="642" height="281"/></clipPath></g><g class="gradients"/><g class="patterns"/></defs><g class="bglayer"/><g class="layer-below"><g class="imagelayer"/><g class="shapelayer"/></g><g class="cartesianlayer"><g class="subplot xy"><g class="layer-subplot"><g class="shapelayer"><g class="shape-group" data-index="0" clip-path="url(#clip40a3dcxy)"><path data-index="0" fill-rule="evenodd" d="M 37.260000000000005 152.4 L 149.66 152.4 C 154.08 152.4 157.66 148.82 157.66 144.41 L 157.66 98.57 C 157.66 94.16 154.08 90.58 149.66 90.58 L 37.260000000000005 90.58 C 32.84 90.58 29.26 94.16 29.26 98.57 L 29.26 144.41 C 29.26 148.82 32.84 152.4 37.260000000000005 152.4 Z" style="opacity: 1; stroke: rgb(51, 51, 51); stroke-opacity: 1; fill: rgb(220, 234, 247); fill-opacity: 1; stroke-width: 1px;"/></g><g class="shape-group" data-index="1" clip-path="url(#clip40a3dcxy)"><path data-index="1" fill-rule="evenodd" d="M 204.18 152.4 L 329.42 152.4 C 333.84 152.4 337.42 148.82 337.42 144.41 L 337.42 98.57 C 337.42 94.16 333.84 90.58 329.42 90.58 L 204.18 90.58 C 199.76 90.58 196.18 94.16 196.18 98.57 L 196.18 144.41 C 196.18 148.82 199.76 152.4 204.18 152.4 Z" style="opacity: 1; stroke: rgb(51, 51, 51); stroke-opacity: 1; fill: rgb(232, 243, 232); fill-opacity: 1; stroke-width: 1px;"/></g><g class="shape-group" data-index="2" clip-path="url(#clip40a3dcxy)"><path data-index="2" fill-rule="evenodd" d="M 383.94 152.4 L 496.34 152.4 C 500.76 152.4 504.34 148.82 504.34 144.41 L 504.34 98.57 C 504.34 94.16 500.76 90.58 496.34 90.58 L 383.94 90.58 C 379.52 90.58 375.94 94.16 375.94 98.57 L 375.94 144.41 C 375.94 148.82 379.52 152.4 383.94 152.4 Z" style="opacity: 1; stroke: rgb(51, 51, 51); stroke-opacity: 1; fill: rgb(255, 247, 222); fill-opacity: 1; stroke-width: 1px;"/></g><g class="shape-group" data-index="3" clip-path="url(#clip40a3dcxy)"><path data-index="3" fill-rule="evenodd" d="M 538.02 152.4 L 624.74 152.4 C 629.16 152.4 632.74 148.82 632.74 144.41 L 632.74 98.57 C 632.74 94.16 629.16 90.58 624.74 90.58 L 538.02 90.58 C 533.6 90.58 530.02 94.16 530.02 98.57 L 530.02 144.41 C 530.02 148.82 533.6 152.4 538.02 152.4 Z" style="opacity: 1; stroke: rgb(51, 51, 51); stroke-opacity: 1; fill: rgb(252, 228, 214); fill-opacity: 1; stroke-width: 1px;"/></g><g class="shape-group" data-index="4" clip-path="url(#clip40a3dcxy)"><path data-index="4" fill-rule="evenodd" d="M 50.1 287.28 L 188.18 287.28 C 192.6 287.28 196.18 283.7 196.18 279.28999999999996 L 196.18 227.83 C 196.18 223.42 192.6 219.84 188.18 219.84 L 50.1 219.84 C 45.68 219.84 42.1 223.42 42.1 227.83 L 42.1 279.28999999999996 C 42.1 283.7 45.68 287.28 50.1 287.28 Z" style="opacity: 1; stroke: rgb(51, 51, 51); stroke-opacity: 1; fill: rgb(244, 204, 204); fill-opacity: 1; stroke-width: 1px;"/></g><g class="shape-group" data-index="5" clip-path="url(#clip40a3dcxy)"><path data-index="5" fill-rule="evenodd" d="M 242.7 287.28 L 393.62 287.28 C 398.04 287.28 401.62 283.7 401.62 279.28999999999996 L 401.62 227.83 C 401.62 223.42 398.04 219.84 393.62 219.84 L 242.7 219.84 C 238.28 219.84 234.7 223.42 234.7 227.83 L 234.7 279.28999999999996 C 234.7 283.7 238.28 287.28 242.7 287.28 Z" style="opacity: 1; stroke: rgb(51, 51, 51); stroke-opacity: 1; fill: rgb(234, 220, 248); fill-opacity: 1; stroke-width: 1px;"/></g><g class="shape-group" data-index="6" clip-path="url(#clip40a3dcxy)"><path data-index="6" fill-rule="evenodd" d="M 448.14 287.28 L 611.9 287.28 C 616.32 287.28 619.9 283.7 619.9 279.28999999999996 L 619.9 227.83 C 619.9 223.42 616.32 219.84 611.9 219.84 L 448.14 219.84 C 443.72 219.84 440.14 223.42 440.14 227.83 L 440.14 279.28999999999996 C 440.14 283.7 443.72 287.28 448.14 287.28 Z" style="opacity: 1; stroke: rgb(51, 51, 51); stroke-opacity: 1; fill: rgb(217, 234, 211); fill-opacity: 1; stroke-width: 1px;"/></g></g><g class="imagelayer"/></g><g class="minor-gridlayer"><g class="x"/><g class="y"/></g><g class="gridlayer"><g class="x"/><g class="y"/></g><g class="zerolinelayer"/><g class="layer-between"><g class="shapelayer"/><g class="imagelayer"/></g><path class="xlines-below"/><path class="ylines-below"/><g class="overlines-below"/><g class="xaxislayer-below"/><g class="yaxislayer-below"/><g class="overaxes-below"/><g class="overplot"><g class="xy" transform="translate(10,40)" clip-path="url(#clip40a3dcxyplot)"/></g><g class="zerolinelayer-above"/><path class="xlines-above crisp" d="M0,0" style="fill: none;"/><path class="ylines-above crisp" d="M0,0" style="fill: none;"/><g class="overlines-above"/><g class="xaxislayer-above"/><g class="yaxislayer-above"/><g class="overaxes-above"/></g></g><g class="polarlayer"/><g class="smithlayer"/><g class="ternarylayer"/><g class="geolayer"/><g class="funnelarealayer"/><g class="pielayer"/><g class="iciclelayer"/><g class="treemaplayer"/><g class="sunburstlayer"/><g class="glimages"/><defs id="topdefs-40a3dc"><g class="clips"/></defs><g class="layer-above"><g class="imagelayer"/><g class="shapelayer"><g class="shape-group" data-index="7" clip-path="url(#clip40a3dcxy)"><path data-index="7" fill-rule="evenodd" d="M 562.12 90.58 Q 331 68.1 93.46 90.58" style="opacity: 1; stroke: rgb(0, 114, 178); stroke-opacity: 1; fill: rgb(0, 0, 0); fill-opacity: 0; stroke-dasharray: 3px, 3px; stroke-width: 1.2px;"/></g></g></g><g class="infolayer"><g class="g-gtitle"><text class="gtitle" x="331.2" y="20" text-anchor="middle" dy="0em" style="opacity: 1; font-family: Helvetica, Arial, 'Helvetica Neue', 'DejaVu Sans', 'PingFang SC', 'Songti SC', 'Hiragino Sans GB', 'Microsoft YaHei', sans-serif; font-size: 12px; fill: rgb(17, 17, 17); fill-opacity: 1; white-space: pre;">原生C++拥塞控制回路总体架构</text></g><g class="annotation" data-index="0" style="opacity: 1;"><g class="annotation-text-g" transform="rotate(0,93.46,121.49)"><g class="cursor-pointer" transform="translate(53,103)"><rect class="bg" x="0.5" y="0.5" width="79" height="35" style="stroke-width: 1px; stroke: rgb(0, 0, 0); stroke-opacity: 0; fill: rgb(0, 0, 0); fill-opacity: 0;"/><text class="annotation-text" text-anchor="middle" x="39.9453125" y="10" style="font-family: Helvetica, Arial, 'Helvetica Neue', 'DejaVu Sans', 'PingFang SC', 'Songti SC', 'Hiragino Sans GB', 'Microsoft YaHei', sans-serif; font-size: 8.5px; fill: rgb(17, 17, 17); fill-opacity: 1; white-space: pre;"><tspan class="line" dy="0em" x="39.9453125" y="10">ns-3 TCP协议栈</tspan><tspan class="line" dy="1.3em" x="39.9453125" y="10">五类原生回调</tspan><tspan class="line" dy="2.6em" x="39.9453125" y="10">ACK/丢包/RTT/ECN</tspan></text></g></g></g><g class="annotation" data-index="1" style="opacity: 1;"><g class="annotation-text-g" transform="rotate(0,266.8,121.49)"><g class="cursor-pointer" transform="translate(229,103)"><rect class="bg" x="0.5" y="0.5" width="74" height="35" style="stroke-width: 1px; stroke: rgb(0, 0, 0); stroke-opacity: 0; fill: rgb(0, 0, 0); fill-opacity: 0;"/><text class="annotation-text" text-anchor="middle" x="37.578125" y="10" style="font-family: Helvetica, Arial, 'Helvetica Neue', 'DejaVu Sans', 'PingFang SC', 'Songti SC', 'Hiragino Sans GB', 'Microsoft YaHei', sans-serif; font-size: 8.5px; fill: rgb(17, 17, 17); fill-opacity: 1; white-space: pre;"><tspan class="line" dy="0em" x="37.578125" y="10">TcpSwift连接状态</tspan><tspan class="line" dy="1.3em" x="37.578125" y="10">速率样本 / minRTT</tspan><tspan class="line" dy="2.6em" x="37.578125" y="10">BDP / α / 安全计数</tspan></text></g></g></g><g class="annotation" data-index="2" style="opacity: 1;"><g class="annotation-text-g" transform="rotate(0,440.14,121.49)"><g class="cursor-pointer" transform="translate(402,103)"><rect class="bg" x="0.5" y="0.5" width="76" height="35" style="stroke-width: 1px; stroke: rgb(0, 0, 0); stroke-opacity: 0; fill: rgb(0, 0, 0); fill-opacity: 0;"/><text class="annotation-text" text-anchor="middle" x="38.609375" y="10" style="font-family: Helvetica, Arial, 'Helvetica Neue', 'DejaVu Sans', 'PingFang SC', 'Songti SC', 'Hiragino Sans GB', 'Microsoft YaHei', sans-serif; font-size: 8.5px; fill: rgb(17, 17, 17); fill-opacity: 1; white-space: pre;"><tspan class="line" dy="0em" x="38.609375" y="10">原生C++决策逻辑</tspan><tspan class="line" dy="1.3em" x="38.609375" y="10">同一离散事件进程</tspan><tspan class="line" dy="2.6em" x="38.609375" y="10">无IPC / Python依赖</tspan></text></g></g></g><g class="annotation" data-index="3" style="opacity: 1;"><g class="annotation-text-g" transform="rotate(0,581.38,121.49)"><g class="cursor-pointer" transform="translate(554,103)"><rect class="bg" x="0.5" y="0.5" width="54" height="35" style="stroke-width: 1px; stroke: rgb(0, 0, 0); stroke-opacity: 0; fill: rgb(0, 0, 0); fill-opacity: 0;"/><text class="annotation-text" text-anchor="middle" x="27.5" y="10" style="font-family: Helvetica, Arial, 'Helvetica Neue', 'DejaVu Sans', 'PingFang SC', 'Songti SC', 'Hiragino Sans GB', 'Microsoft YaHei', sans-serif; font-size: 8.5px; fill: rgb(17, 17, 17); fill-opacity: 1; white-space: pre;"><tspan class="line" dy="0em" x="27.5" y="10">窗口状态写回</tspan><tspan class="line" dy="1.3em" x="27.5" y="10">ssThresh</tspan><tspan class="line" dy="2.6em" x="27.5" y="10">与cWnd</tspan></text></g></g></g><g class="annotation" data-index="4" style="opacity: 1;"><g class="annotation-text-g" transform="rotate(0,119.14,253.56)"><g class="cursor-pointer" transform="translate(77,236)"><rect class="bg" x="0.5" y="0.5" width="83" height="35" style="stroke-width: 1px; stroke: rgb(0, 0, 0); stroke-opacity: 0; fill: rgb(0, 0, 0); fill-opacity: 0;"/><text class="annotation-text" text-anchor="middle" x="41.921875" y="10" style="font-family: Helvetica, Arial, 'Helvetica Neue', 'DejaVu Sans', 'PingFang SC', 'Songti SC', 'Hiragino Sans GB', 'Microsoft YaHei', sans-serif; font-size: 8.5px; fill: rgb(17, 17, 17); fill-opacity: 1; white-space: pre;"><tspan class="line" dy="0em" x="41.921875" y="10">拥塞三分类判定</tspan><tspan class="line" dy="1.3em" x="41.921875" y="10">超时 0.50 / ECN 0.75</tspan><tspan class="line" dy="2.6em" x="41.921875" y="10">普通丢包 0.70</tspan></text></g></g></g><g class="annotation" data-index="5" style="opacity: 1;"><g class="annotation-text-g" transform="rotate(0,318.16,253.56)"><g class="cursor-pointer" transform="translate(278,236)"><rect class="bg" x="0.5" y="0.5" width="79" height="35" style="stroke-width: 1px; stroke: rgb(0, 0, 0); stroke-opacity: 0; fill: rgb(0, 0, 0); fill-opacity: 0;"/><text class="annotation-text" text-anchor="middle" x="40.140625" y="10" style="font-family: Helvetica, Arial, 'Helvetica Neue', 'DejaVu Sans', 'PingFang SC', 'Songti SC', 'Hiragino Sans GB', 'Microsoft YaHei', sans-serif; font-size: 8.5px; fill: rgb(17, 17, 17); fill-opacity: 1; white-space: pre;"><tspan class="line" dy="0em" x="40.140625" y="10">两级BDP估计</tspan><tspan class="line" dy="1.3em" x="40.140625" y="10">时间窗交付速率</tspan><tspan class="line" dy="2.6em" x="40.140625" y="10">+ 40样本最大值滤波</tspan></text></g></g></g><g class="annotation" data-index="6" style="opacity: 1;"><g class="annotation-text-g" transform="rotate(0,530.02,253.56)"><g class="cursor-pointer" transform="translate(488,236)"><rect class="bg" x="0.5" y="0.5" width="84" height="35" style="stroke-width: 1px; stroke: rgb(0, 0, 0); stroke-opacity: 0; fill: rgb(0, 0, 0); fill-opacity: 0;"/><text class="annotation-text" text-anchor="middle" x="42.5" y="10" style="font-family: Helvetica, Arial, 'Helvetica Neue', 'DejaVu Sans', 'PingFang SC', 'Songti SC', 'Hiragino Sans GB', 'Microsoft YaHei', sans-serif; font-size: 8.5px; fill: rgb(17, 17, 17); fill-opacity: 1; white-space: pre;"><tspan class="line" dy="0em" x="42.5" y="10">基线相对反馈自适应</tspan><tspan class="line" dy="1.3em" x="42.5" y="10">快/慢EMA对比</tspan><tspan class="line" dy="2.6em" x="42.5" y="10">有界步长逼近 α×BDP</tspan></text></g></g></g><g class="annotation" data-index="7" style="opacity: 1;"><g class="annotation-text-g" transform="rotate(0,157.66,121.49)"><g class="cursor-pointer" transform="translate(156,119)"><rect class="bg" x="0.5" y="0.5" width="3" height="3" style="stroke-width: 1px; stroke: rgb(0, 0, 0); stroke-opacity: 0; fill: rgb(0, 0, 0); fill-opacity: 0;"/><text class="annotation-text" text-anchor="middle" x="2" y="2" style="font-family: Helvetica, Arial, 'Helvetica Neue', 'DejaVu Sans', 'PingFang SC', 'Songti SC', 'Hiragino Sans GB', 'Microsoft YaHei', sans-serif; font-size: 8px; fill: rgb(17, 17, 17); fill-opacity: 1; white-space: pre;"></text></g></g><g class="annotation-arrow-g" style="opacity: 1;"><path d="M159.16,121.49L196.18,121.49" style="stroke-width: 1.1px; stroke: rgb(51, 51, 51); stroke-opacity: 1; stroke-dasharray: 0px, 0px, 35.59px, 37.02px;"/><path d="M-3.7,-2.5V2.5L1.3,0Z" transform="translate(194.75,121.48999786376953)scale(1.1)" style="fill: rgb(51, 51, 51); stroke-width: 0;"/></g></g><g class="annotation" data-index="8" style="opacity: 1;"><g class="annotation-text-g" transform="rotate(0,176.92,114.49)"><g class="cursor-pointer" transform="translate(161,108)"><rect class="bg" x="0.5" y="0.5" width="31" height="11" style="stroke-width: 1px; stroke: rgb(0, 0, 0); stroke-opacity: 0; fill: rgb(0, 0, 0); fill-opacity: 0;"/><text class="annotation-text" text-anchor="middle" x="16" y="8" style="font-family: Helvetica, Arial, 'Helvetica Neue', 'DejaVu Sans', 'PingFang SC', 'Songti SC', 'Hiragino Sans GB', 'Microsoft YaHei', sans-serif; font-size: 7px; fill: rgb(51, 51, 51); fill-opacity: 1; white-space: pre;">读取状态</text></g></g></g><g class="annotation" data-index="9" style="opacity: 1;"><g class="annotation-text-g" transform="rotate(0,337.42,121.49)"><g class="cursor-pointer" transform="translate(335,119)"><rect class="bg" x="0.5" y="0.5" width="3" height="3" style="stroke-width: 1px; stroke: rgb(0, 0, 0); stroke-opacity: 0; fill: rgb(0, 0, 0); fill-opacity: 0;"/><text class="annotation-text" text-anchor="middle" x="2" y="2" style="font-family: Helvetica, Arial, 'Helvetica Neue', 'DejaVu Sans', 'PingFang SC', 'Songti SC', 'Hiragino Sans GB', 'Microsoft YaHei', sans-serif; font-size: 8px; fill: rgb(17, 17, 17); fill-opacity: 1; white-space: pre;"></text></g></g><g class="annotation-arrow-g" style="opacity: 1;"><path d="M338.92,121.49L375.94,121.49" style="stroke-width: 1.1px; stroke: rgb(51, 51, 51); stroke-opacity: 1; stroke-dasharray: 0px, 0px, 35.59px, 37.02px;"/><path d="M-3.7,-2.5V2.5L1.3,0Z" transform="translate(374.510009765625,121.48999786376953)scale(1.1)" style="fill: rgb(51, 51, 51); stroke-width: 0;"/></g></g><g class="annotation" data-index="10" style="opacity: 1;"><g class="annotation-text-g" transform="rotate(0,356.68,114.49)"><g class="cursor-pointer" transform="translate(341,108)"><rect class="bg" x="0.5" y="0.5" width="31" height="11" style="stroke-width: 1px; stroke: rgb(0, 0, 0); stroke-opacity: 0; fill: rgb(0, 0, 0); fill-opacity: 0;"/><text class="annotation-text" text-anchor="middle" x="16" y="8" style="font-family: Helvetica, Arial, 'Helvetica Neue', 'DejaVu Sans', 'PingFang SC', 'Songti SC', 'Hiragino Sans GB', 'Microsoft YaHei', sans-serif; font-size: 7px; fill: rgb(51, 51, 51); fill-opacity: 1; white-space: pre;">本地计算</text></g></g></g><g class="annotation" data-index="11" style="opacity: 1;"><g class="annotation-text-g" transform="rotate(0,504.34,121.49)"><g class="cursor-pointer" transform="translate(502,119)"><rect class="bg" x="0.5" y="0.5" width="3" height="3" style="stroke-width: 1px; stroke: rgb(0, 0, 0); stroke-opacity: 0; fill: rgb(0, 0, 0); fill-opacity: 0;"/><text class="annotation-text" text-anchor="middle" x="2" y="2" style="font-family: Helvetica, Arial, 'Helvetica Neue', 'DejaVu Sans', 'PingFang SC', 'Songti SC', 'Hiragino Sans GB', 'Microsoft YaHei', sans-serif; font-size: 8px; fill: rgb(17, 17, 17); fill-opacity: 1; white-space: pre;"></text></g></g><g class="annotation-arrow-g" style="opacity: 1;"><path d="M505.84,121.49L530.02,121.49" style="stroke-width: 1.1px; stroke: rgb(51, 51, 51); stroke-opacity: 1; stroke-dasharray: 0px, 0px, 22.75px, 24.18px;"/><path d="M-3.7,-2.5V2.5L1.3,0Z" transform="translate(528.5900268554688,121.48999786376953)scale(1.1)" style="fill: rgb(51, 51, 51); stroke-width: 0;"/></g></g><g class="annotation" data-index="12" style="opacity: 1;"><g class="annotation-text-g" transform="rotate(0,517.1800000000001,114.49)"><g class="cursor-pointer" transform="translate(508,108)"><rect class="bg" x="0.5" y="0.5" width="17" height="11" style="stroke-width: 1px; stroke: rgb(0, 0, 0); stroke-opacity: 0; fill: rgb(0, 0, 0); fill-opacity: 0;"/><text class="annotation-text" text-anchor="middle" x="9" y="8" style="font-family: Helvetica, Arial, 'Helvetica Neue', 'DejaVu Sans', 'PingFang SC', 'Songti SC', 'Hiragino Sans GB', 'Microsoft YaHei', sans-serif; font-size: 7px; fill: rgb(51, 51, 51); fill-opacity: 1; white-space: pre;">更新</text></g></g></g><g class="annotation" data-index="13" style="opacity: 1;"><g class="annotation-text-g" transform="rotate(0,119.14,152.4)"><g class="cursor-pointer" transform="translate(117,150)"><rect class="bg" x="0.5" y="0.5" width="3" height="3" style="stroke-width: 1px; stroke: rgb(0, 0, 0); stroke-opacity: 0; fill: rgb(0, 0, 0); fill-opacity: 0;"/><text class="annotation-text" text-anchor="middle" x="2" y="2" style="font-family: Helvetica, Arial, 'Helvetica Neue', 'DejaVu Sans', 'PingFang SC', 'Songti SC', 'Hiragino Sans GB', 'Microsoft YaHei', sans-serif; font-size: 8px; fill: rgb(17, 17, 17); fill-opacity: 1; white-space: pre;"></text></g></g><g class="annotation-arrow-g" style="opacity: 1;"><path d="M119.14,153.9L119.14,219.84" style="stroke-width: 1.1px; stroke: rgb(51, 51, 51); stroke-opacity: 1; stroke-dasharray: 0px, 0px, 64.51px, 65.94px;"/><path d="M-3.7,-2.5V2.5L1.3,0Z" transform="translate(119.13999938964844,218.41000366210938)rotate(90)scale(1.1)" style="fill: rgb(51, 51, 51); stroke-width: 0;"/></g></g><g class="annotation" data-index="14" style="opacity: 1;"><g class="annotation-text-g" transform="rotate(0,119.14,179.12)"><g class="cursor-pointer" transform="translate(103,173)"><rect class="bg" x="0.5" y="0.5" width="31" height="11" style="stroke-width: 1px; stroke: rgb(0, 0, 0); stroke-opacity: 0; fill: rgb(0, 0, 0); fill-opacity: 0;"/><text class="annotation-text" text-anchor="middle" x="16" y="8" style="font-family: Helvetica, Arial, 'Helvetica Neue', 'DejaVu Sans', 'PingFang SC', 'Songti SC', 'Hiragino Sans GB', 'Microsoft YaHei', sans-serif; font-size: 7px; fill: rgb(51, 51, 51); fill-opacity: 1; white-space: pre;">拥塞信号</text></g></g></g><g class="annotation" data-index="15" style="opacity: 1;"><g class="annotation-text-g" transform="rotate(0,292.48,152.4)"><g class="cursor-pointer" transform="translate(290,150)"><rect class="bg" x="0.5" y="0.5" width="3" height="3" style="stroke-width: 1px; stroke: rgb(0, 0, 0); stroke-opacity: 0; fill: rgb(0, 0, 0); fill-opacity: 0;"/><text class="annotation-text" text-anchor="middle" x="2" y="2" style="font-family: Helvetica, Arial, 'Helvetica Neue', 'DejaVu Sans', 'PingFang SC', 'Songti SC', 'Hiragino Sans GB', 'Microsoft YaHei', sans-serif; font-size: 8px; fill: rgb(17, 17, 17); fill-opacity: 1; white-space: pre;"></text></g></g><g class="annotation-arrow-g" style="opacity: 1;"><path d="M293.05117437722424,153.9L318.16,219.84" style="stroke-width: 1.1px; stroke: rgb(51, 51, 51); stroke-opacity: 1; stroke-dasharray: 0px, 0px, 69.1287px, 70.5587px;"/><path d="M-3.7,-2.5V2.5L1.3,0Z" transform="translate(317.651123046875,218.50360107421875)rotate(69.15643462007931)scale(1.1)" style="fill: rgb(51, 51, 51); stroke-width: 0;"/></g></g><g class="annotation" data-index="16" style="opacity: 1;"><g class="annotation-text-g" transform="rotate(0,305.32,179.12)"><g class="cursor-pointer" transform="translate(289,173)"><rect class="bg" x="0.5" y="0.5" width="31" height="11" style="stroke-width: 1px; stroke: rgb(0, 0, 0); stroke-opacity: 0; fill: rgb(0, 0, 0); fill-opacity: 0;"/><text class="annotation-text" text-anchor="middle" x="16" y="8" style="font-family: Helvetica, Arial, 'Helvetica Neue', 'DejaVu Sans', 'PingFang SC', 'Songti SC', 'Hiragino Sans GB', 'Microsoft YaHei', sans-serif; font-size: 7px; fill: rgb(51, 51, 51); fill-opacity: 1; white-space: pre;">速率样本</text></g></g></g><g class="annotation" data-index="17" style="opacity: 1;"><g class="annotation-text-g" transform="rotate(0,196.18,253.56)"><g class="cursor-pointer" transform="translate(194,252)"><rect class="bg" x="0.5" y="0.5" width="3" height="3" style="stroke-width: 1px; stroke: rgb(0, 0, 0); stroke-opacity: 0; fill: rgb(0, 0, 0); fill-opacity: 0;"/><text class="annotation-text" text-anchor="middle" x="2" y="2" style="font-family: Helvetica, Arial, 'Helvetica Neue', 'DejaVu Sans', 'PingFang SC', 'Songti SC', 'Hiragino Sans GB', 'Microsoft YaHei', sans-serif; font-size: 8px; fill: rgb(17, 17, 17); fill-opacity: 1; white-space: pre;"></text></g></g><g class="annotation-arrow-g" style="opacity: 1;"><path d="M197.68,253.56L234.7,253.56" style="stroke-width: 1.1px; stroke: rgb(51, 51, 51); stroke-opacity: 1; stroke-dasharray: 0px, 0px, 35.59px, 37.02px;"/><path d="M-3.7,-2.5V2.5L1.3,0Z" transform="translate(233.26998901367188,253.55999755859375)scale(1.1)" style="fill: rgb(51, 51, 51); stroke-width: 0;"/></g></g><g class="annotation" data-index="18" style="opacity: 1;"><g class="annotation-text-g" transform="rotate(0,215.44,246.56)"><g class="cursor-pointer" transform="translate(196,241)"><rect class="bg" x="0.5" y="0.5" width="38" height="11" style="stroke-width: 1px; stroke: rgb(0, 0, 0); stroke-opacity: 0; fill: rgb(0, 0, 0); fill-opacity: 0;"/><text class="annotation-text" text-anchor="middle" x="19.5" y="8" style="font-family: Helvetica, Arial, 'Helvetica Neue', 'DejaVu Sans', 'PingFang SC', 'Songti SC', 'Hiragino Sans GB', 'Microsoft YaHei', sans-serif; font-size: 7px; fill: rgb(51, 51, 51); fill-opacity: 1; white-space: pre;">非拥塞路径</text></g></g></g><g class="annotation" data-index="19" style="opacity: 1;"><g class="annotation-text-g" transform="rotate(0,401.62,253.56)"><g class="cursor-pointer" transform="translate(400,252)"><rect class="bg" x="0.5" y="0.5" width="3" height="3" style="stroke-width: 1px; stroke: rgb(0, 0, 0); stroke-opacity: 0; fill: rgb(0, 0, 0); fill-opacity: 0;"/><text class="annotation-text" text-anchor="middle" x="2" y="2" style="font-family: Helvetica, Arial, 'Helvetica Neue', 'DejaVu Sans', 'PingFang SC', 'Songti SC', 'Hiragino Sans GB', 'Microsoft YaHei', sans-serif; font-size: 8px; fill: rgb(17, 17, 17); fill-opacity: 1; white-space: pre;"></text></g></g><g class="annotation-arrow-g" style="opacity: 1;"><path d="M403.12,253.56L440.14,253.56" style="stroke-width: 1.1px; stroke: rgb(51, 51, 51); stroke-opacity: 1; stroke-dasharray: 0px, 0px, 35.59px, 37.02px;"/><path d="M-3.7,-2.5V2.5L1.3,0Z" transform="translate(438.71002197265625,253.55999755859375)scale(1.1)" style="fill: rgb(51, 51, 51); stroke-width: 0;"/></g></g><g class="annotation" data-index="20" style="opacity: 1;"><g class="annotation-text-g" transform="rotate(0,420.88,246.56)"><g class="cursor-pointer" transform="translate(412,241)"><rect class="bg" x="0.5" y="0.5" width="17" height="11" style="stroke-width: 1px; stroke: rgb(0, 0, 0); stroke-opacity: 0; fill: rgb(0, 0, 0); fill-opacity: 0;"/><text class="annotation-text" text-anchor="middle" x="9.203125" y="8" style="font-family: Helvetica, Arial, 'Helvetica Neue', 'DejaVu Sans', 'PingFang SC', 'Songti SC', 'Hiragino Sans GB', 'Microsoft YaHei', sans-serif; font-size: 7px; fill: rgb(51, 51, 51); fill-opacity: 1; white-space: pre;">BDP</text></g></g></g><g class="annotation" data-index="21" style="opacity: 1;"><g class="annotation-text-g" transform="rotate(0,562.12,219.84)"><g class="cursor-pointer" transform="translate(560,218)"><rect class="bg" x="0.5" y="0.5" width="3" height="3" style="stroke-width: 1px; stroke: rgb(0, 0, 0); stroke-opacity: 0; fill: rgb(0, 0, 0); fill-opacity: 0;"/><text class="annotation-text" text-anchor="middle" x="2" y="2" style="font-family: Helvetica, Arial, 'Helvetica Neue', 'DejaVu Sans', 'PingFang SC', 'Songti SC', 'Hiragino Sans GB', 'Microsoft YaHei', sans-serif; font-size: 8px; fill: rgb(17, 17, 17); fill-opacity: 1; white-space: pre;"></text></g></g><g class="annotation-arrow-g" style="opacity: 1;"><path d="M562.4055871886121,218.34L574.96,152.4" style="stroke-width: 1.1px; stroke: rgb(0, 114, 178); stroke-opacity: 1; stroke-dasharray: 0px, 0px, 65.6945px, 67.1245px;"/><path d="M-3.7,-2.5V2.5L1.3,0Z" transform="translate(574.6925659179688,153.8047637939453)rotate(-79.23533321805856)scale(1.1)" style="fill: rgb(0, 114, 178); stroke-width: 0;"/></g></g><g class="annotation" data-index="22" style="opacity: 1;"><g class="annotation-text-g" transform="rotate(0,568.54,179.12)"><g class="cursor-pointer" transform="translate(553,173)"><rect class="bg" x="0.5" y="0.5" width="31" height="11" style="stroke-width: 1px; stroke: rgb(0, 0, 0); stroke-opacity: 0; fill: rgb(0, 0, 0); fill-opacity: 0;"/><text class="annotation-text" text-anchor="middle" x="16" y="8" style="font-family: Helvetica, Arial, 'Helvetica Neue', 'DejaVu Sans', 'PingFang SC', 'Songti SC', 'Hiragino Sans GB', 'Microsoft YaHei', sans-serif; font-size: 7px; fill: rgb(0, 114, 178); fill-opacity: 1; white-space: pre;">候选窗口</text></g></g></g><g class="annotation" data-index="23" style="opacity: 1;"><g class="annotation-text-g" transform="rotate(0,331,55.46)"><g class="cursor-pointer" transform="translate(269,49)"><rect class="bg" x="0.5" y="0.5" width="123" height="12" style="stroke-width: 1px; stroke: rgb(0, 0, 0); stroke-opacity: 0; fill: rgb(0, 0, 0); fill-opacity: 0;"/><text class="annotation-text" text-anchor="middle" x="62" y="9" style="font-family: Helvetica, Arial, 'Helvetica Neue', 'DejaVu Sans', 'PingFang SC', 'Songti SC', 'Hiragino Sans GB', 'Microsoft YaHei', sans-serif; font-size: 7.5px; fill: rgb(0, 114, 178); fill-opacity: 1; white-space: pre;">窗口状态由原生回调直接写回协议栈</text></g></g></g></g></svg>